<svg xmlns="http://www.w3.org/2000/svg" viewBox="0 0 1024 1024">
  <defs>
    <linearGradient id="dial" x1="278" x2="746" y1="210" y2="806" gradientUnits="userSpaceOnUse">
      <stop offset="0" stop-color="#2cff8b"/>
      <stop offset="1" stop-color="#0fbf65"/>
    </linearGradient>
    <filter id="shadow" x="-20%" y="-20%" width="140%" height="145%">
      <feDropShadow dx="0" dy="28" stdDeviation="34" flood-color="#0a1b12" flood-opacity=".22"/>
    </filter>
    <filter id="hub-shadow" x="-60%" y="-60%" width="220%" height="220%">
      <feDropShadow dx="0" dy="16" stdDeviation="18" flood-color="#06130c" flood-opacity=".22"/>
    </filter>
  </defs>
  <rect x="64" y="56" width="896" height="896" rx="196" fill="#f8faf8" filter="url(#shadow)"/>
  <g stroke="#cfd3d2" stroke-linecap="round" stroke-width="18">
    <path d="M512 156v54"/>
    <path d="M512 814v54"/>
    <path d="M868 512h-54"/>
    <path d="M210 512h-54"/>
    <path d="M690 204l-27 47"/>
    <path d="M821 335l-47 27"/>
    <path d="M774 662l47 27"/>
    <path d="M663 773l27 47"/>
    <path d="M334 820l27-47"/>
    <path d="M203 689l47-27"/>
    <path d="M250 362l-47-27"/>
    <path d="M361 251l-27-47"/>
  </g>
  <path d="M512 236v276h276A276 276 0 1 1 512 236Z" fill="url(#dial)"/>
  <path d="M512 512 724 470a20 20 0 0 1 9 39L512 512Z" fill="#202323"/>
  <circle cx="512" cy="512" r="88" fill="#fff" filter="url(#hub-shadow)"/>
  <circle cx="512" cy="512" r="34" fill="#202323"/>
</svg>
