<svg xmlns="http://www.w3.org/2000/svg" viewBox="0 0 1024 1024">
  <defs>
    <linearGradient id="base" x1="164" x2="860" y1="92" y2="930" gradientUnits="userSpaceOnUse">
      <stop offset="0" stop-color="#171d20"/>
      <stop offset=".54" stop-color="#070b0d"/>
      <stop offset="1" stop-color="#020304"/>
    </linearGradient>
    <linearGradient id="green" x1="292" x2="766" y1="232" y2="786" gradientUnits="userSpaceOnUse">
      <stop offset="0" stop-color="#d7ff19"/>
      <stop offset=".45" stop-color="#66ff1f"/>
      <stop offset="1" stop-color="#00df72"/>
    </linearGradient>
    <radialGradient id="glow" cx="50%" cy="44%" r="62%">
      <stop offset="0" stop-color="#adff1a" stop-opacity=".34"/>
      <stop offset=".62" stop-color="#2cff7c" stop-opacity=".1"/>
      <stop offset="1" stop-color="#2cff7c" stop-opacity="0"/>
    </radialGradient>
    <filter id="drop" x="-20%" y="-20%" width="140%" height="145%">
      <feDropShadow dx="0" dy="34" stdDeviation="36" flood-color="#000" flood-opacity=".38"/>
    </filter>
    <filter id="soft" x="-30%" y="-30%" width="160%" height="160%">
      <feDropShadow dx="0" dy="18" stdDeviation="18" flood-color="#00190a" flood-opacity=".34"/>
    </filter>
  </defs>

  <rect x="64" y="56" width="896" height="896" rx="210" fill="url(#base)" filter="url(#drop)"/>
  <rect x="92" y="84" width="840" height="840" rx="184" fill="url(#glow)" opacity=".9"/>

  <g transform="translate(512 516)">
    <g stroke-linecap="round" stroke-width="18">
      <path d="M0 -360v48" stroke="#efffe4" opacity=".72"/>
      <path d="M0 312v48" stroke="#efffe4" opacity=".24"/>
      <path d="M360 0h-48" stroke="#efffe4" opacity=".34"/>
      <path d="M-312 0h-48" stroke="#efffe4" opacity=".28"/>
      <path d="M254 -254l-34 34" stroke="#efffe4" opacity=".34"/>
      <path d="M254 254l-34-34" stroke="#efffe4" opacity=".22"/>
      <path d="M-254 254l34-34" stroke="#efffe4" opacity=".2"/>
      <path d="M-254 -254l34 34" stroke="#efffe4" opacity=".34"/>
    </g>

    <circle r="286" fill="#071012" stroke="#263033" stroke-width="16"/>
    <path
      d="M0 -286A286 286 0 1 1 -204 201L0 0Z"
      fill="url(#green)"
      filter="url(#soft)"
    />
    <path d="M0 -286A286 286 0 0 1 247 -144" fill="none" stroke="#f2ffbe" stroke-width="22" stroke-linecap="round" opacity=".58"/>
    <path d="M0 0 218 -42a22 22 0 0 1 9 43L0 0Z" fill="#0a0e0f"/>
    <circle r="95" fill="#f6fff2" filter="url(#soft)"/>
    <circle r="52" fill="url(#green)"/>
    <circle r="24" fill="#071012"/>
  </g>
</svg>
