<svg width="1024" height="1024" viewBox="0 0 1024 1024" fill="none" xmlns="http://www.w3.org/2000/svg">
<path d="M750 56H274C158.02 56 64 150.02 64 266V742C64 857.98 158.02 952 274 952H750C865.98 952 960 857.98 960 742V266C960 150.02 865.98 56 750 56Z" fill="#282A36"/>
<path d="M251.371 433.485C235.377 429.158 218.745 438.608 216.036 454.953C206.943 509.822 213.255 566.356 234.567 618.154C259.7 679.234 304.286 730.313 361.411 763.467C418.536 796.621 485.005 809.996 550.507 801.518C616.009 793.041 676.883 763.183 723.685 716.578C770.486 669.973 800.6 609.226 809.354 543.76C818.107 478.294 805.012 411.769 772.099 354.505C739.186 297.242 688.295 252.44 627.321 227.051C575.614 205.52 519.107 198.97 464.2 207.832C447.844 210.472 438.324 227.064 442.584 243.076V243.076C446.844 259.087 463.277 268.414 479.695 266.184C521.745 260.472 564.752 265.991 604.257 282.44C653.036 302.752 693.749 338.593 720.079 384.404C746.409 430.215 756.886 483.435 749.883 535.808C742.88 588.181 718.789 636.779 681.348 674.063C643.906 711.347 595.208 735.232 542.806 742.015C490.404 748.797 437.229 738.097 391.529 711.573C345.829 685.05 310.16 644.187 290.054 595.323C273.771 555.749 268.433 512.719 274.322 470.693C276.621 454.285 267.364 437.813 251.371 433.485V433.485Z" fill="#1BDEC8"/>
<rect x="507.5" y="290" width="10" height="50" rx="5" fill="white" fill-opacity="0.3"/>
<rect x="507.5" y="669" width="10" height="50" rx="5" fill="white" fill-opacity="0.3"/>
<rect x="727" y="499.5" width="10" height="50" rx="5" transform="rotate(90 727 499.5)" fill="white" fill-opacity="0.3"/>
<rect x="348" y="499.5" width="10" height="50" rx="5" transform="rotate(90 348 499.5)" fill="white" fill-opacity="0.3"/>
<rect x="615.42" y="316.238" width="10" height="50" rx="5" transform="rotate(30 615.42 316.238)" fill="white" fill-opacity="0.3"/>
<rect x="425.92" y="644.461" width="10" height="50" rx="5" transform="rotate(30 425.92 644.461)" fill="white" fill-opacity="0.3"/>
<rect x="700.762" y="607.42" width="10" height="50" rx="5" transform="rotate(120 700.762 607.42)" fill="white" fill-opacity="0.3"/>
<rect x="372.539" y="417.92" width="10" height="50" rx="5" transform="rotate(120 372.539 417.92)" fill="white" fill-opacity="0.3"/>
<rect x="695.762" y="392.92" width="10" height="50" rx="5" transform="rotate(60 695.762 392.92)" fill="white" fill-opacity="0.3"/>
<rect x="367.539" y="582.42" width="10" height="50" rx="5" transform="rotate(60 367.539 582.42)" fill="white" fill-opacity="0.3"/>
<rect x="624.08" y="687.762" width="10" height="50" rx="5" transform="rotate(150 624.08 687.762)" fill="white" fill-opacity="0.3"/>
<rect x="434.58" y="359.539" width="10" height="50" rx="5" transform="rotate(150 434.58 359.539)" fill="white" fill-opacity="0.3"/>
<path d="M395.142 379.142C402.953 371.332 415.616 371.332 423.426 379.142L522.421 478.137C530.232 485.948 530.232 498.611 522.421 506.421C514.611 514.232 501.948 514.232 494.137 506.421L395.142 407.426C387.332 399.616 387.332 386.953 395.142 379.142Z" fill="white"/>
<path d="M395.142 606.421C387.332 598.611 387.332 585.948 395.142 578.137L494.137 479.142C501.948 471.332 514.611 471.332 522.421 479.142C530.232 486.953 530.232 499.616 522.421 507.426L423.426 606.421C415.616 614.232 402.953 614.232 395.142 606.421Z" fill="white"/>
<rect x="504" y="572" width="120" height="40" rx="20" fill="#36D836"/>
</svg>
