<svg width="22" height="22" viewBox="0 0 22 22" fill="none" xmlns="http://www.w3.org/2000/svg">
<rect width="22" height="22" fill="white"/>
<path d="M2.31236 8.64951C1.77924 8.50527 1.22484 8.82025 1.13454 9.36511C0.831427 11.1941 1.04182 13.0785 1.75224 14.8051C2.58999 16.8411 4.07622 18.5437 5.98037 19.6489C7.88452 20.754 10.1002 21.1999 12.2836 20.9173C14.467 20.6347 16.4961 19.6394 18.0561 18.0859C19.6162 16.5324 20.62 14.5075 20.9118 12.3253C21.2036 10.1431 20.767 7.92564 19.6699 6.01685C18.5728 4.10806 16.8765 2.61467 14.844 1.76836C13.1205 1.05067 11.2369 0.832336 9.40668 1.12774C8.86145 1.21574 8.54414 1.76881 8.68613 2.30253C8.82812 2.83625 9.3759 3.14714 9.92316 3.07279C11.3248 2.88239 12.7584 3.06636 14.0752 3.61468C15.7012 4.29173 17.0583 5.48644 17.936 7.01348C18.8136 8.54051 19.1628 10.3145 18.9294 12.0603C18.696 13.806 17.893 15.4259 16.6449 16.6687C15.3969 17.9115 13.7736 18.7077 12.0269 18.9338C10.2801 19.1599 8.50762 18.8032 6.98429 17.9191C5.46097 17.035 4.27199 15.6729 3.60179 14.0441C3.05902 12.725 2.88109 11.2906 3.0774 9.88978C3.15405 9.34284 2.84547 8.79375 2.31236 8.64951Z" fill="black"/>
<path d="M6.09131 5.8052C6.42265 5.47386 6.95986 5.47386 7.2912 5.8052L11.4908 10.0048C11.8221 10.3361 11.8221 10.8733 11.4908 11.2047C11.1595 11.536 10.6222 11.536 10.2909 11.2047L6.09131 7.00508C5.75997 6.67374 5.75997 6.13653 6.09131 5.8052Z" fill="black"/>
<path d="M6.09131 15.4469C5.75997 15.1156 5.75997 14.5784 6.09131 14.247L10.2909 10.0474C10.6222 9.71609 11.1595 9.71609 11.4908 10.0474C11.8221 10.3788 11.8221 10.916 11.4908 11.2473L7.2912 15.4469C6.95986 15.7782 6.42265 15.7782 6.09131 15.4469Z" fill="black"/>
<path d="M10.7093 14.8351C10.7093 14.3665 11.0892 13.9867 11.5578 13.9867H14.9515C15.4201 13.9867 15.8 14.3665 15.8 14.8351C15.8 15.3037 15.4201 15.6836 14.9515 15.6836H11.5578C11.0892 15.6836 10.7093 15.3037 10.7093 14.8351Z" fill="black"/>
</svg>
